# xmcd
#
# Track frame offsets:
#   150
#   12460
#   29500
#   45930
#   61712
#   74792
#   93497
#   111204
#   125160
#   136902
#   153812
#   169925
#   184850
#
# Disc length: 2616 seconds
#
# Revision: 0
# Processed by: cddbd v1.5.1PL0 Copyright (c) Steve Scherf et al.
# Submitted via: uFREEDB ActiveX Control 1.5
#
DISCID=b30a360d
DTITLE=Leo Canhoto e Robertinho - Leo Canhoto e Robertinho
DYEAR=1900
DGENRE=Alternative
TTITLE0=O Messias
TTITLE1=Terra Prometida
TTITLE2=Ainda Vou te Conquistar
TTITLE3=Menino Fomem Mulher Menina
TTITLE4=Cachaca nele
TTITLE5=Na trilha dos animais
TTITLE6=Mae
TTITLE7=Sabor Hortela
TTITLE8=Poe Tudo
TTITLE9=Misterio de Amor
TTITLE10=Calca Jeans
TTITLE11=Mal Entendido
TTITLE12=fonte de Prazer
EXTD=
EXTT0=
EXTT1=
EXTT2=
EXTT3=
EXTT4=
EXTT5=
EXTT6=
EXTT7=
EXTT8=
EXTT9=
EXTT10=
EXTT11=
EXTT12=
PLAYORDER=
